<svg display="none" version="1.1" xmlns="http://www.w3.org/2000/svg" xmlns:xlink="http://www.w3.org/1999/xlink">
<defs>
<symbol id="icon-home" viewBox="0 0 1024 1024">
	<title>home</title>
	<path class="path1" d="M1024 608l-192-192v-288h-128v160l-192-192-512 512v32h128v320h320v-192h128v192h320v-320h128z" />
</symbol>
<symbol id="icon-music" viewBox="0 0 1024 1024">
	<title>music</title>
	<path class="path1" d="M320 192l704-192v736c0 88.366-100.29 160-224 160s-224-71.634-224-160c0-88.366 100.29-160 224-160 34.358 0 66.902 5.532 96 15.406v-329.588l-448 122.182v480c0 88.366-100.288 160-224 160s-224-71.634-224-160c0-88.366 100.288-160 224-160 34.358 0 66.902 5.532 96 15.406v-527.406z" />
</symbol>
<symbol id="icon-headphones" viewBox="0 0 1024 1024">
	<title>headphones</title>
	<path class="path1" d="M192 578.286v443.43c10.454 1.496 21.134 2.286 32 2.286h32v-448.002h-32c-10.866 0-21.546 0.79-32 2.286zM768 576v448h32c10.868 0 21.546-0.79 32-2.286v-443.428c-10.454-1.496-21.132-2.286-32-2.286h-32zM1024 512c0-282.77-229.23-512-512-512s-512 229.23-512 512c0 61.418 10.828 120.306 30.656 174.874-19.472 33.202-30.656 71.852-30.656 113.126 0 89.354 52.326 166.478 128 202.432v-404.864c-20.126 9.562-38.58 22.060-54.858 36.904-5.992-29.22-9.142-59.478-9.142-90.472 0-247.424 200.576-448 448-448s448 200.576 448 448c0 30.994-3.148 61.252-9.142 90.472-16.28-14.844-34.73-27.342-54.858-36.904v404.864c75.676-35.954 128-113.078 128-202.432 0-41.274-11.184-79.924-30.656-113.126 19.828-54.568 30.656-113.456 30.656-174.874z" />
</symbol>
<symbol id="icon-play" viewBox="0 0 1024 1024">
	<title>play</title>
	<path class="path1" d="M981.188 160.108c-143.632-20.65-302.332-32.108-469.186-32.108-166.86 0-325.556 11.458-469.194 32.108-27.53 107.726-42.808 226.75-42.808 351.892 0 125.14 15.278 244.166 42.808 351.89 143.638 20.652 302.336 32.11 469.194 32.11 166.854 0 325.552-11.458 469.186-32.11 27.532-107.724 42.812-226.75 42.812-351.89 0-125.142-15.28-244.166-42.812-351.892zM384.002 704v-384l320 192-320 192z" />
</symbol>
<symbol id="icon-bubbles" viewBox="0 0 1152 1024">
	<title>bubbles</title>
	<path class="path1" d="M1088 901.166c0 45.5 26.028 84.908 64 104.184v15.938c-10.626 1.454-21.472 2.224-32.5 2.224-68.008 0-129.348-28.528-172.722-74.264-26.222 6.982-54.002 10.752-82.778 10.752-159.058 0-288-114.616-288-256s128.942-256 288-256c159.058 0 288 114.616 288 256 0 55.348-19.764 106.592-53.356 148.466-6.824 14.824-10.644 31.312-10.644 48.7zM512 0c278.458 0 504.992 180.614 511.836 405.52-49.182-21.92-103.586-33.52-159.836-33.52-95.56 0-185.816 33.446-254.138 94.178-70.846 62.972-109.862 147.434-109.862 237.822 0 44.672 9.544 87.888 27.736 127.788-5.228 0.126-10.468 0.212-15.736 0.212-27.156 0-53.81-1.734-79.824-5.044-109.978 109.978-241.25 129.7-368.176 132.596v-26.916c68.536-33.578 128-94.74 128-164.636 0-9.754-0.758-19.33-2.164-28.696-115.796-76.264-189.836-192.754-189.836-323.304 0-229.75 229.23-416 512-416z" />
</symbol>
<symbol id="icon-user" viewBox="0 0 1024 1024">
	<title>user</title>
	<path class="path1" d="M622.826 702.736c-22.11-3.518-22.614-64.314-22.614-64.314s64.968-64.316 79.128-150.802c38.090 0 61.618-91.946 23.522-124.296 1.59-34.054 48.96-267.324-190.862-267.324s-192.45 233.27-190.864 267.324c-38.094 32.35-14.57 124.296 23.522 124.296 14.158 86.486 79.128 150.802 79.128 150.802s-0.504 60.796-22.614 64.314c-71.22 11.332-337.172 128.634-337.172 257.264h896c0-128.63-265.952-245.932-337.174-257.264z" />
</symbol>
<symbol id="icon-thumbs-up" viewBox="0 0 1024 1024">
	<title>thumbs-up</title>
	<path class="path1" d="M928 576c73 0 32 192-32 192 32 0 0 160-64 160 0 64-64 96-128 96-270.352 0-175.264-67.65-448-96v-512c240.922-72.268 480-253.424 480-416 53 0 192 64 0 384 0 0 160 0 192 0 96 0 64 192 0 192zM192 416v512h64v32h-128c-35.2 0-64-43.2-64-96v-384c0-52.8 28.8-96 64-96h128v32h-64z" />
</symbol>
<symbol id="icon-cancel-circle" viewBox="0 0 1024 1024">
	<title>cancel-circle</title>
	<path class="path1" d="M512 0c-282.77 0-512 229.23-512 512s229.23 512 512 512 512-229.23 512-512-229.23-512-512-512zM768 346.51l-165.488 165.49 165.488 165.488v90.512h-90.512l-165.488-165.488-165.49 165.488h-90.51v-90.512l165.49-165.488-165.49-165.49v-90.51h90.51l165.49 165.49 165.488-165.49h90.512v90.51z" />
</symbol>
<symbol id="icon-checkmark-circle" viewBox="0 0 1024 1024">
	<title>checkmark-circle</title>
	<path class="path1" d="M512 0c-282.77 0-512 229.23-512 512s229.23 512 512 512 512-229.23 512-512-229.23-512-512-512zM416 832l-212-276 94-98 118 150 370-302 46 46-416 480z" />
</symbol>
<symbol id="icon-exit" viewBox="0 0 1024 1024">
	<title>exit</title>
	<path class="path1" d="M768 640v-128h-320v-128h320v-128l192 192zM704 576v256h-320v192l-384-192v-832h704v320h-64v-256h-512l256 128v576h256v-192z" />
</symbol>
<symbol id="icon-play2" viewBox="0 0 1024 1024">
	<title>play2</title>
	<path class="path1" d="M192 128l640 384-640 384z" />
</symbol>
<symbol id="icon-pause" viewBox="0 0 1024 1024">
	<title>pause</title>
	<path class="path1" d="M128 128h320v768h-320zM576 128h320v768h-320z" />
</symbol>
<symbol id="icon-stop" viewBox="0 0 1024 1024">
	<title>stop</title>
	<path class="path1" d="M128 128h768v768h-768z" />
</symbol>
<symbol id="icon-loop" viewBox="0 0 1024 1024">
	<title>loop</title>
	<path class="path1" d="M874.022 149.98c-92.652-92.656-220.636-149.98-362.022-149.98-219.488 0-406.69 138.128-479.498 332.188l119.876 44.954c54.604-145.546 195.006-249.142 359.622-249.142 106.040 0 202.020 43 271.506 112.494l-143.506 143.506h384v-384l-149.978 149.98zM512 896c-106.040 0-202.026-42.992-271.512-112.488l143.512-143.512h-384v384l149.994-149.994c92.646 92.662 220.618 149.994 362.006 149.994 219.49 0 406.692-138.128 479.5-332.188l-119.876-44.954c-54.604 145.546-195.006 249.142-359.624 249.142z" />
</symbol>
<symbol id="icon-youtube" viewBox="0 0 1024 1024">
	<title>youtube</title>
	<path class="path1" d="M832 128h-640c-105.6 0-192 86.4-192 192v384c0 105.6 86.4 192 192 192h640c105.6 0 192-86.4 192-192v-384c0-105.6-86.4-192-192-192zM384 768v-512l320 256-320 256z" />
</symbol>
<symbol id="icon-youtube2" viewBox="0 0 1024 1024">
	<title>youtube2</title>
	<path class="path1" d="M832 128h-640c-105.6 0-192 86.4-192 192v384c0 105.6 86.4 192 192 192h640c105.6 0 192-86.4 192-192v-384c0-105.6-86.4-192-192-192zM960 704c0 33.978-13.374 66.062-37.654 90.346-24.284 24.28-56.366 37.654-90.346 37.654h-640c-33.978 0-66.062-13.374-90.344-37.654-24.282-24.284-37.656-56.368-37.656-90.346v-384c0-33.978 13.374-66.062 37.656-90.344s56.366-37.656 90.344-37.656h640c33.978 0 66.062 13.374 90.346 37.656 24.282 24.282 37.654 56.366 37.654 90.344v384zM384 768l320-256-320-256z" />
</symbol>
<symbol id="icon-users" viewBox="0 0 1024 1024">
	<title>users</title>
	<path class="path1" d="M1024 962.56c0 0-1.997-193.894-13.875-213.965-17.664-29.952-58.675-50.483-134.861-82.33-75.93-31.744-100.25-58.573-100.25-115.866 0-34.458 23.194-23.194 33.382-86.221 4.198-26.163 24.678-0.461 28.621-60.109 0-23.808-11.162-29.747-11.162-29.747s5.632-35.226 7.885-62.31c2.765-33.792-17.050-120.986-122.47-120.986s-125.133 87.245-122.419 120.986c2.202 27.085 7.834 62.31 7.834 62.31s-11.162 5.939-11.162 29.747c3.942 59.699 24.422 33.997 28.672 60.109 10.138 63.027 33.331 51.763 33.331 86.221 0 38.963-11.264 63.846-42.342 85.709 165.888 83.046 188.16 99.994 188.16 174.234v152.218h230.656zM523.469 695.040c-101.325-42.291-133.632-78.029-133.632-154.47 0-45.875 30.925-30.925 44.493-114.995 5.581-34.867 32.973-0.563 38.144-80.128 0-31.744-14.899-39.629-14.899-39.629s7.578-46.95 10.547-83.098c3.686-44.954-22.733-161.28-163.277-161.28s-166.912 116.275-163.226 161.28c2.97 36.147 10.496 83.098 10.496 83.098s-14.848 7.885-14.848 39.629c5.274 79.616 32.563 45.312 38.195 80.128 13.568 84.070 44.493 69.069 44.493 114.995 0 76.442-32.41 112.179-133.632 154.47-30.874 12.902-86.323 32.922-86.323 80.947v186.573h711.373c0 0 0-110.336 0-139.827 0-43.878-86.374-85.197-187.904-127.693z" />
</symbol>
<symbol id="icon-user-add" viewBox="0 0 1024 1024">
	<title>user-add</title>
	<path class="path1" d="M633.702 739.738c-127.539-45.978-168.294-84.787-168.294-167.885 0-49.869 38.963-33.587 56.064-124.928 7.117-37.888 41.523-0.614 48.026-87.091 0-34.458-18.739-43.059-18.739-43.059s9.574-51.046 13.261-90.266c4.608-48.947-28.57-175.309-205.619-175.309s-210.227 126.362-205.619 175.309c3.738 39.27 13.312 90.266 13.312 90.266s-18.79 8.55-18.79 43.059c6.605 86.477 41.011 49.203 48.026 87.091 17.152 91.341 56.115 75.059 56.115 124.928 0 83.098-40.806 121.907-168.346 167.885-15.36 5.478-51.968 14.080-83.098 27.546v205.517h819.2c0 0 0-75.725 0-107.776s-57.498-79.155-185.498-125.286zM870.4 460.8v-153.6h-102.4v153.6h-153.6v102.4h153.6v153.6h102.4v-153.6h153.6v-102.4h-153.6z" />
</symbol>
<symbol id="icon-music2" viewBox="0 0 1024 1024">
	<title>music2</title>
	<path class="path1" d="M604.109 61.389h-82.125v669.286c-45.414-17.51-104.192-17.766-162.15 3.328-103.834 37.786-165.734 129.741-138.24 205.312 27.546 75.622 134.042 106.24 237.875 68.454 88.218-32.102 145.92-103.27 144.486-170.24l0.154-547.328c143.206 22.528 152.986 203.622 135.834 254.413-6.554 19.251 4.966 33.638 26.624 0 154.368-240.282-162.458-346.214-162.458-483.226z" />
</symbol>
<symbol id="icon-music3" viewBox="0 0 1024 1024">
	<title>music3</title>
	<path class="path1" d="M312.832 139.725v607.59c-33.075-6.912-71.578-4.301-109.773 9.83-85.862 31.898-116.173 109.568-93.389 173.363 22.733 63.846 89.958 89.651 175.821 57.754 72.909-27.085 120.678-87.091 119.45-143.718 0 0 0-322.202 0-501.914l363.571-83.302v385.536c-33.075-6.912-71.578-4.301-109.773 9.83-85.914 31.898-116.224 109.568-93.44 173.363 22.784 63.846 89.958 89.651 175.872 57.754 72.96-27.085 120.627-87.091 119.501-143.718v-720.077l-547.84 117.709z" />
</symbol>
<symbol id="icon-checkmark" viewBox="0 0 1024 1024">
	<title>checkmark</title>
	<path class="path1" d="M424.704 870.4c-22.272 0-43.366-10.394-56.883-28.314l-182.989-241.562c-23.808-31.437-17.613-76.186 13.824-99.994 31.488-23.859 76.186-17.613 99.994 13.824l120.371 158.925 302.694-485.939c20.838-33.434 64.87-43.674 98.355-22.835 33.434 20.787 43.674 64.87 22.784 98.304l-357.53 573.952c-12.442 20.019-33.894 32.563-57.395 33.587-1.075 0.051-2.15 0.051-3.226 0.051z" />
</symbol>
<symbol id="icon-cross" viewBox="0 0 1024 1024">
	<title>cross</title>
	<path class="path1" d="M734.669 673.382l-141.21-161.382 141.21-161.382c24.013-24.013 24.013-62.925 0-86.886-24.013-23.962-62.925-23.962-86.886 0l-135.782 155.187-135.731-155.136c-24.013-24.013-62.925-24.013-86.886 0-23.962 24.013-23.962 62.925 0 86.886l141.158 161.331-141.21 161.382c-23.962 24.013-23.962 62.822 0 86.784 24.013 24.013 62.925 24.013 86.886 0l135.782-155.085 135.731 155.085c24.013 24.013 62.925 24.013 86.886 0s24.013-62.771 0.051-86.784z" />
</symbol>
<symbol id="icon-arrow-left" viewBox="0 0 1024 1024">
	<title>arrow-left</title>
	<path class="path1" d="M585.574 231.219c-21.402 20.89-230.502 240.435-230.502 240.435-11.418 11.162-17.101 25.754-17.101 40.346s5.683 29.184 17.101 40.346c0 0 209.101 219.546 230.502 240.384 21.402 20.89 59.904 22.323 82.739 0 22.784-22.272 24.576-53.35-0.051-80.64l-191.846-200.090 191.846-200.090c24.627-27.341 22.835-58.419 0.051-80.691-22.886-22.272-61.389-20.89-82.739 0z" />
</symbol>
</defs>
</svg>
